<?xml version="1.0" standalone="no"?><!DOCTYPE svg PUBLIC "-//W3C//DTD SVG 1.1//EN" "http://www.w3.org/Graphics/SVG/1.1/DTD/svg11.dtd"><svg t="1635227374575" class="icon" viewBox="0 0 1024 1024" version="1.1" xmlns="http://www.w3.org/2000/svg" p-id="4663" xmlns:xlink="http://www.w3.org/1999/xlink" width="64" height="64"><defs><style type="text/css"></style></defs><path d="M269.9028 631.604487m84.852814-84.852813l229.25816-229.258161q84.852814-84.852814 169.705628 0l94.936156 94.936156q84.852814 84.852814 0 169.705628l-229.258161 229.258161q-84.852814 84.852814-169.705627 0l-94.936156-94.936157q-84.852814-84.852814 0-169.705627Z" fill="#E9F1FF" p-id="4664"></path><path d="M511.51 879.59a191.46 191.46 0 0 1-135.79-56.15L134.18 581.9a234.37 234.37 0 0 1 0-331.46l30.58-30.58a234.4 234.4 0 0 1 331.46 0l15.29 15.29 15.29-15.29a234.4 234.4 0 0 1 331.46 0l30.58 30.58a234.4 234.4 0 0 1 0 331.46L647.3 823.44a191.46 191.46 0 0 1-135.79 56.15z m-181-664.3A169.85 169.85 0 0 0 210 265.12l-30.57 30.57c-66.43 66.44-66.43 174.53 0 241L421 778.18c49.92 49.92 131.16 49.93 181.08 0l241.5-241.53c66.43-66.43 66.43-174.52 0-241L813 265.12c-66.44-66.43-174.53-66.43-241 0L470.86 366.31l-0.15 0.15-18.6 18.6a32 32 0 0 1-45.26-45.25l59.4-59.4L451 265.12a169.85 169.85 0 0 0-120.51-49.83z" fill="#2C5CCB" p-id="4665"></path><path d="M510.88 643.7a198.31 198.31 0 0 1-141.15-58.46 30 30 0 0 1 42.42-42.43c54.44 54.44 143 54.44 197.45 0a30 30 0 1 1 42.4 42.43 198.33 198.33 0 0 1-141.12 58.46z" fill="#2C5CCB" p-id="4666"></path></svg>