<?xml version="1.0" standalone="no"?><!DOCTYPE svg PUBLIC "-//W3C//DTD SVG 1.1//EN" "http://www.w3.org/Graphics/SVG/1.1/DTD/svg11.dtd"><svg t="1635227340818" class="icon" viewBox="0 0 1024 1024" version="1.1" xmlns="http://www.w3.org/2000/svg" p-id="4351" xmlns:xlink="http://www.w3.org/1999/xlink" width="64" height="64"><defs><style type="text/css"></style></defs><path d="M282.22 581.02m120 0l293.71 0q120 0 120 120l0 70.14q0 120-120 120l-293.71 0q-120 0-120-120l0-70.14q0-120 120-120Z" fill="#E9F1FF" p-id="4352"></path><path d="M512 475.35C412 475.35 330.61 394 330.61 294S412 112.57 512 112.57 693.39 193.94 693.39 294 612 475.35 512 475.35z m0-298.78A117.39 117.39 0 1 0 629.39 294 117.52 117.52 0 0 0 512 176.57zM848 911.43a32 32 0 0 1-32-32V756.92c0-99-80.53-179.51-179.51-179.51h-249c-99 0-179.51 80.53-179.51 179.51v122.51a32 32 0 0 1-64 0V756.92a243.5 243.5 0 0 1 243.53-243.51h249A243.5 243.5 0 0 1 880 756.92v122.51a32 32 0 0 1-32 32z" fill="#2C5CCB" p-id="4353"></path></svg>